<svg id="Layer_1" data-name="Layer 1" xmlns="http://www.w3.org/2000/svg" viewBox="0 0 712.95 585.79"><defs><style>.cls-1{fill:#f2e4e2;}.cls-2{fill:#f2f4f7;}.cls-3{fill:#57ce87;}.cls-4{fill:#299655;}.cls-5{fill:#196d3b;}.cls-6{fill:#ed8a74;}.cls-7{fill:#ce5b49;}.cls-8{fill:#81a2c9;}.cls-9{fill:#d3ddef;}.cls-10{fill:#fff;}.cls-11{fill:#dd842a;}.cls-12{fill:#294473;}.cls-13{fill:#366bc6;}.cls-14{fill:#093793;}.cls-15{fill:#11223d;}.cls-16{fill:#efe3d8;}.cls-17{fill:#11233f;}.cls-18{fill:#e23758;}.cls-19{fill:#b72c4e;}.cls-20{fill:#281c1a;}.cls-21{fill:#e25d47;}.cls-22{fill:#230e0d;}.cls-23{fill:#09121e;}.cls-24{fill:#aa6363;}.cls-25{fill:#e56180;}.cls-26{fill:#1f3556;}.cls-27{fill:#205db7;}</style></defs><g id="Group_56" data-name="Group 56"><g id="Hero_Image" data-name="Hero Image"><ellipse id="Oval" class="cls-1" cx="362" cy="576.15" rx="299.18" ry="9.64"/><g id="Group"><path id="Path" class="cls-2" d="M510.34,532.15c-13,70.15,7.46,167.12,92.29,188,85.77,21.13,175.64-21,248.6,62.18,123,140.23,355.85,128.28,367.94-34.68,10.62-143.1-140.52-208.88-262.85-174C886.87,593.53,805.16,457,718.88,422.17S525.35,451.2,510.34,532.15Z" transform="translate(-506.75 -355.01)"/><circle id="Oval-2" class="cls-2" cx="429.38" cy="138.65" r="60.19"/><g id="Group-2"><g id="Group-3"><path id="Path-2" class="cls-3" d="M728.24,851.86c6.24-20.26,30-5.86,41.53-8.75h0a7.32,7.32,0,0,0,4.39-2.86c7.93-11.17,2.92-23.82,2.92-23.82s-.85,3-5.77,5S756,809,735.61,816.52,728.24,851.86,728.24,851.86Z" transform="translate(-506.75 -355.01)"/><path id="Path-3" class="cls-4" d="M728.24,851.86c6.24-20.26,30-5.86,41.53-8.75h0c6.44-5.3,5.94-19.51,5.94-19.51a12.61,12.61,0,0,1-4,4.31c-2.64,1.67-20.35-7.93-32.44-2.85S728.24,851.86,728.24,851.86Z" transform="translate(-506.75 -355.01)"/><path id="Path-4" class="cls-5" d="M751.85,823.82a17.86,17.86,0,0,0-11-.4,15.45,15.45,0,0,0-5.13,2.6,17.08,17.08,0,0,0-3.87,4.26,25.93,25.93,0,0,0-3.65,10.59,40.85,40.85,0,0,0,0,11,104.06,104.06,0,0,1,1.63-10.69c.2-.86.46-1.71.66-2.57s.5-1.69.86-2.49a21.8,21.8,0,0,1,2.3-4.64,15.8,15.8,0,0,1,7.7-6.43A22.68,22.68,0,0,1,751.85,823.82Z" transform="translate(-506.75 -355.01)"/><circle id="Oval-3" class="cls-5" cx="234.89" cy="479.77" r="2.6"/><circle id="Oval-4" class="cls-5" cx="244.48" cy="474.31" r="1.53"/><circle id="Oval-5" class="cls-4" cx="225.14" cy="468.82" r="1.84"/><circle id="Oval-6" class="cls-5" cx="256.63" cy="468.6" r="1.53"/><circle id="Oval-7" class="cls-5" cx="252.88" cy="478.78" r="2.6"/><circle id="Oval-8" class="cls-4" cx="242.51" cy="464.24" r="1.87"/></g><g id="Group-4"><path id="Path-5" class="cls-3" d="M732,851.86c-6.24-20.26-30-5.86-41.53-8.75h0a7.35,7.35,0,0,1-4.39-2.86c-7.93-11.17-2.91-23.82-2.91-23.82s.85,3,5.76,5,15.31-12.46,35.72-4.93S732,851.86,732,851.86Z" transform="translate(-506.75 -355.01)"/><path id="Path-6" class="cls-4" d="M732,851.86c-6.24-20.26-30-5.86-41.53-8.75h0c-6.44-5.3-5.94-19.51-5.94-19.51a12.64,12.64,0,0,0,4,4.31c2.64,1.67,20.34-7.93,32.44-2.85S732,851.86,732,851.86Z" transform="translate(-506.75 -355.01)"/><path id="Path-7" class="cls-5" d="M708.41,823.82a17.9,17.9,0,0,1,11-.4,15.4,15.4,0,0,1,5.12,2.6,17.43,17.43,0,0,1,3.87,4.26,26.2,26.2,0,0,1,3.66,10.59,41.26,41.26,0,0,1-.06,11,101.6,101.6,0,0,0-1.63-10.68c-.2-.87-.45-1.72-.66-2.57s-.5-1.69-.85-2.49a22.79,22.79,0,0,0-2.3-4.64,15.81,15.81,0,0,0-7.7-6.44A22.74,22.74,0,0,0,708.41,823.82Z" transform="translate(-506.75 -355.01)"/><circle id="Oval-9" class="cls-5" cx="211.88" cy="479.77" r="2.6"/><circle id="Oval-10" class="cls-5" cx="202.28" cy="474.31" r="1.53"/><circle id="Oval-11" class="cls-4" cx="221.63" cy="468.82" r="1.84"/><circle id="Oval-12" class="cls-5" cx="190.14" cy="468.6" r="1.53"/><circle id="Oval-13" class="cls-5" cx="193.88" cy="478.78" r="2.6"/><circle id="Oval-14" class="cls-4" cx="204.26" cy="464.24" r="1.87"/></g><path id="Path-8" class="cls-6" d="M702.18,879h58.07l-10,54.91H712.7Z" transform="translate(-506.75 -355.01)"/><path id="Path-9" class="cls-7" d="M760.25,879l-46.4,15.17-1.15,39.74L702.18,879Z" transform="translate(-506.75 -355.01)"/><g id="Group-5"><path id="Path-10" class="cls-3" d="M691.19,859.24c29,.59,18.93,33.69,27,46.36h0a9.78,9.78,0,0,0,5.42,4.24c17.65,5.65,32.44-4.56,32.44-4.56s-4.26,0-8.77-5.15,10.68-22.37-6.86-44.06S691.19,859.24,691.19,859.24Z" transform="translate(-506.75 -355.01)"/><path id="Path-11" class="cls-4" d="M691.19,859.24c29,.59,18.93,33.69,27,46.36h0c9.39,5.86,27.91.48,27.91.48a18.2,18.2,0,0,1-7.17-3.3c-3.17-2.57,2.83-26.82-8.36-39.47S691.19,859.24,691.19,859.24Z" transform="translate(-506.75 -355.01)"/><path id="Path-12" class="cls-5" d="M736.91,877.82a20.31,20.31,0,0,0-3.59-13.21,19.68,19.68,0,0,0-5.33-5.2,24.71,24.71,0,0,0-7-3.16,39.29,39.29,0,0,0-15.31-.78,61.08,61.08,0,0,0-14.44,3.77c4.93-.72,9.81-1.42,14.67-1.66,1.21-.06,2.43,0,3.63-.08s2.41,0,3.6.17a33,33,0,0,1,7,1.17,21.91,21.91,0,0,1,11.35,7A26.73,26.73,0,0,1,736.91,877.82Z" transform="translate(-506.75 -355.01)"/><ellipse id="Oval-15" class="cls-5" cx="211.91" cy="514.38" rx="3.55" ry="3.2"/><ellipse id="Oval-16" class="cls-5" cx="222.68" cy="523.93" rx="2.09" ry="1.89"/><ellipse id="Oval-17" class="cls-4" cx="222.68" cy="499.12" rx="2.51" ry="2.27"/><ellipse id="Oval-18" class="cls-5" cx="234.74" cy="536.42" rx="2.09" ry="1.89"/><ellipse id="Oval-19" class="cls-5" cx="219.94" cy="535.41" rx="3.55" ry="3.2"/><ellipse id="Oval-20" class="cls-4" cx="235.21" cy="518.19" rx="2.56" ry="2.31"/></g><g id="Group-6"><path id="Path-13" class="cls-3" d="M736.17,845.09c-30.46.68-19.88,39.24-28.39,54h0a10.52,10.52,0,0,1-5.68,4.94c-18.55,6.58-34.08-5.31-34.08-5.31s4.48,0,9.21-6-11.22-26.05,7.2-51.31S736.17,845.09,736.17,845.09Z" transform="translate(-506.75 -355.01)"/><path id="Path-14" class="cls-4" d="M736.17,845.09c-30.45.69-19.88,39.24-28.39,54h0c-9.86,6.82-29.31.56-29.31.56a18.22,18.22,0,0,0,7.53-3.86c3.34-3-3-31.23,8.78-46S736.17,845.09,736.17,845.09Z" transform="translate(-506.75 -355.01)"/><path id="Path-15" class="cls-5" d="M688.15,866.73a25.57,25.57,0,0,1,3.76-15.39,22.16,22.16,0,0,1,5.6-6.06,25.06,25.06,0,0,1,7.41-3.68,37.44,37.44,0,0,1,16.07-.9,59,59,0,0,1,15.18,4.39,148.12,148.12,0,0,0-15.41-1.94c-1.28-.06-2.55,0-3.82-.1s-2.53,0-3.78.2a32,32,0,0,0-7.31,1.37,22.73,22.73,0,0,0-11.92,8.12A32.58,32.58,0,0,0,688.15,866.73Z" transform="translate(-506.75 -355.01)"/><circle id="Oval-21" class="cls-5" cx="200.56" cy="501.9" r="3.73"/><circle id="Oval-22" class="cls-5" cx="189.25" cy="513.02" r="2.2"/><circle id="Oval-23" class="cls-4" cx="189.25" cy="484.12" r="2.64"/><circle id="Oval-24" class="cls-5" cx="176.59" cy="527.57" r="2.2"/><circle id="Oval-25" class="cls-5" cx="192.13" cy="526.39" r="3.73"/><circle id="Oval-26" class="cls-4" cx="176.1" cy="506.34" r="2.69"/></g><g id="Group-7"><path id="Path-16" class="cls-3" d="M722.54,849.76c30.45.68,19.88,39.24,28.38,54l0,0h0a10.49,10.49,0,0,0,5.68,4.94c18.55,6.58,34.07-5.31,34.07-5.31s-4.47,0-9.21-6,11.22-26-7.2-51.32S722.54,849.76,722.54,849.76Z" transform="translate(-506.75 -355.01)"/><path id="Path-17" class="cls-4" d="M722.54,849.76c30.45.68,19.88,39.24,28.38,54h0c9.86,6.83,29.31.56,29.31.56a18.18,18.18,0,0,1-7.54-3.85c-3.33-3,3-31.23-8.77-46S722.54,849.76,722.54,849.76Z" transform="translate(-506.75 -355.01)"/><path id="Path-18" class="cls-5" d="M770.56,871.4A25.63,25.63,0,0,0,766.79,856a21.85,21.85,0,0,0-5.6-6.06,24.7,24.7,0,0,0-7.41-3.68,37.43,37.43,0,0,0-16.07-.9,58.91,58.91,0,0,0-15.17,4.39A145.14,145.14,0,0,1,738,847.82c1.27-.06,2.55,0,3.81-.1s2.54,0,3.78.2a32.06,32.06,0,0,1,7.32,1.37,22.73,22.73,0,0,1,11.92,8.12A32.77,32.77,0,0,1,770.56,871.4Z" transform="translate(-506.75 -355.01)"/><circle id="Oval-27" class="cls-5" cx="244.64" cy="506.57" r="3.73"/><circle id="Oval-28" class="cls-5" cx="255.95" cy="517.69" r="2.2"/><circle id="Oval-29" class="cls-4" cx="255.95" cy="488.79" r="2.64"/><circle id="Oval-30" class="cls-5" cx="268.62" cy="532.24" r="2.2"/><circle id="Oval-31" class="cls-5" cx="253.08" cy="531.06" r="3.73"/><circle id="Oval-32" class="cls-4" cx="269.11" cy="511.01" r="2.69"/></g></g></g><circle id="Oval-33" class="cls-8" cx="215.64" cy="59.88" r="40.55"/><circle id="Oval-34" class="cls-9" cx="215.64" cy="59.88" r="36.72"/><path id="Shape" class="cls-8" d="M811.29,502.59V355h262.17V502.59Z" transform="translate(-506.75 -355.01)"/><rect id="Rectangle" class="cls-10" x="308.93" y="4.67" width="252.8" height="138.23"/><rect id="Rectangle-2" class="cls-9" x="315.77" y="10.01" width="106.84" height="126.71"/><rect id="Rectangle-3" class="cls-9" x="429.36" y="67.38" width="125.37" height="69.34"/><rect id="Rectangle-4" class="cls-9" x="429.36" y="10.01" width="125.37" height="49.87"/><rect id="Rectangle-5" class="cls-10" x="324.72" y="20.27" width="19.21" height="22.89"/><rect id="Rectangle-6" class="cls-11" x="328.47" y="28.96" width="11.71" height="0.79"/><rect id="Rectangle-7" class="cls-11" x="328.47" y="33.43" width="11.71" height="0.79"/><rect id="Rectangle-8" class="cls-10" x="357.88" y="43.17" width="19.21" height="22.89"/><rect id="Rectangle-9" class="cls-12" x="361.63" y="51.85" width="11.71" height="0.79"/><rect id="Rectangle-10" class="cls-12" x="361.63" y="56.32" width="11.71" height="0.79"/><rect id="Rectangle-11" class="cls-10" x="337.26" y="81.15" width="19.21" height="22.89"/><rect id="Rectangle-12" class="cls-3" x="341.01" y="89.83" width="11.71" height="0.79"/><rect id="Rectangle-13" class="cls-3" x="341.01" y="94.3" width="11.71" height="0.79"/><rect id="Rectangle-14" class="cls-10" x="391.65" y="67.73" width="19.21" height="22.89"/><rect id="Rectangle-15" class="cls-11" x="395.4" y="76.41" width="11.71" height="0.79"/><rect id="Rectangle-16" class="cls-11" x="395.4" y="80.88" width="11.71" height="0.79"/><rect id="Rectangle-17" class="cls-10" x="370.51" y="104.04" width="19.21" height="22.89"/><rect id="Rectangle-18" class="cls-3" x="374.26" y="112.72" width="11.71" height="0.79"/><rect id="Rectangle-19" class="cls-3" x="374.26" y="117.2" width="11.71" height="0.79"/><rect id="Rectangle-20" class="cls-10" x="389.72" y="22.38" width="19.21" height="22.89"/><rect id="Rectangle-21" class="cls-12" x="393.47" y="31.06" width="11.71" height="0.79"/><rect id="Rectangle-22" class="cls-12" x="393.47" y="35.53" width="11.71" height="0.79"/><rect id="Rectangle-23" class="cls-10" x="441.69" y="18.3" width="19.21" height="22.89"/><rect id="Rectangle-24" class="cls-11" x="445.44" y="26.98" width="11.71" height="0.79"/><rect id="Rectangle-25" class="cls-11" x="445.44" y="31.46" width="11.71" height="0.79"/><rect id="Rectangle-26" class="cls-10" x="493.09" y="27.77" width="19.21" height="22.89"/><rect id="Rectangle-27" class="cls-12" x="496.84" y="36.46" width="11.71" height="0.79"/><rect id="Rectangle-28" class="cls-12" x="496.84" y="40.93" width="11.71" height="0.79"/><rect id="Rectangle-29" class="cls-10" x="520.62" y="78.38" width="19.21" height="22.89"/><rect id="Rectangle-30" class="cls-12" x="524.37" y="87.07" width="11.71" height="0.79"/><rect id="Rectangle-31" class="cls-12" x="524.37" y="91.54" width="11.71" height="0.79"/><rect id="Rectangle-32" class="cls-10" x="455.47" y="82.86" width="19.21" height="22.89"/><rect id="Rectangle-33" class="cls-3" x="459.22" y="91.54" width="11.71" height="0.79"/><rect id="Rectangle-34" class="cls-3" x="459.22" y="96.01" width="11.71" height="0.79"/><path id="Path-19" class="cls-10" d="M736.82,428.29l-14.59-11.14V391h2.1v25.15l13.76,10.51Z" transform="translate(-506.75 -355.01)"/><g id="Group-8"><path id="Path-20" class="cls-13" d="M1079.39,651.92l0,0C1078.73,651.26,1078.81,651.27,1079.39,651.92Z" transform="translate(-506.75 -355.01)"/><path id="Path-21" class="cls-13" d="M1090.82,651.94H1079.4s0,0,0,0l9.66-4a32.23,32.23,0,0,1,3.65,3.83A8.47,8.47,0,0,1,1090.82,651.94Z" transform="translate(-506.75 -355.01)"/><path id="Path-22" class="cls-13" d="M1107.42,698.69c0,34.16-16.64,60-17.34,61.13l-10.29-2.89c.15-.24,17.1-27.32,17.1-58.24,0-20.72-10-36.94-15.1-43.77,4.62-.29,16.52,1.17,23.1,22.12A88.75,88.75,0,0,1,1107.42,698.69Z" transform="translate(-506.75 -355.01)"/></g><path id="Path-23" class="cls-13" d="M1045.79,756.93c-19.86,7-44.71,6.9-64.4,7.64v-.64a7,7,0,0,1,3.08-5.8h0a7,7,0,0,1,3.9-1.2Z" transform="translate(-506.75 -355.01)"/><path id="Path-24" class="cls-13" d="M1099,763.93v9.52a7,7,0,0,1-7,7H988.38a7,7,0,0,1-7-7h0v-2.87c15.7.83,60.55,2.5,70.07-4.79a58.21,58.21,0,0,0,9.5-8.86h31a7,7,0,0,1,7,7Z" transform="translate(-506.75 -355.01)"/><rect id="Rectangle-35" class="cls-12" x="526.74" y="425.43" width="13.41" height="147.71"/><path id="Path-25" class="cls-12" d="M1082,927.31a4.6,4.6,0,0,1-.62,2.29,4.37,4.37,0,0,1-.72.93,4.52,4.52,0,0,1-3.22,1.34h-74.57A4.55,4.55,0,0,1,999,929.6a4.43,4.43,0,0,1-.62-2.29,4.56,4.56,0,0,1,4.55-4.56h74.57A4.58,4.58,0,0,1,1082,927.31Z" transform="translate(-506.75 -355.01)"/><path id="Path-26" class="cls-14" d="M1061,756.93a57.8,57.8,0,0,1-9.5,8.86c-9.52,7.29-54.37,5.62-70.07,4.79v-6c19.69-.74,44.54-.69,64.4-7.64Z" transform="translate(-506.75 -355.01)"/><path id="Path-27" class="cls-14" d="M1104.9,677c-6.6-20.95-18.49-22.41-23.11-22.11-1-1.41-1.89-2.44-2.39-3h11.42a8.47,8.47,0,0,0,1.88-.22C1096.3,656.07,1101.75,664.3,1104.9,677Z" transform="translate(-506.75 -355.01)"/><path id="Path-28" class="cls-15" d="M1046.9,780.44l-9.48,5.79-3.93,57.89V780.44Z" transform="translate(-506.75 -355.01)"/><path id="Path-29" class="cls-15" d="M1081.41,929.6a4,4,0,0,1-.71.93,4.52,4.52,0,0,1-3.22,1.34h-74.57a2.63,2.63,0,1,1,0-4.56h74.57A4.5,4.5,0,0,1,1081.41,929.6Z" transform="translate(-506.75 -355.01)"/><path id="Path-30" class="cls-10" d="M814.45,637.28h33.69l-7.71,49.3H822Z" transform="translate(-506.75 -355.01)"/><path id="Path-31" class="cls-16" d="M814.8,637.28l27,8.24-3.16,41.06h1.77l7.36-49.3Z" transform="translate(-506.75 -355.01)"/><path id="Path-32" class="cls-11" d="M847.79,637.28h-33a3.51,3.51,0,0,1-3.5-3.51h0a3.52,3.52,0,0,1,3.5-3.5h33a3.5,3.5,0,0,1,3.5,3.5h0a3.49,3.49,0,0,1-3.5,3.51Z" transform="translate(-506.75 -355.01)"/><path id="Path-33" class="cls-17" d="M835.15,886.05s1.32,6.05,0,10.79-5.39,9.87-5.39,9.87-71.44-38.42-69.47-40.92,54.16,2.37,54.16,2.37,12.67,4.47,13.07,5S835.15,886.05,835.15,886.05Z" transform="translate(-506.75 -355.01)"/><path id="Path-34" class="cls-17" d="M995.15,824.65a52.08,52.08,0,0,1,13.94,3.51c6.84,2.89,7.77,5.66,7.77,5.66s-36.71,70.78-41.32,68.81,7.33-51.49,7.33-51.49Z" transform="translate(-506.75 -355.01)"/><path id="Path-35" class="cls-6" d="M818.38,863.51l-3.93,4.65s1.73,6.87,9.52,12.36c8,5.66,11.18,5.53,11.18,5.53l3.09-3.29-2.3-13.42-11.71-4.6Z" transform="translate(-506.75 -355.01)"/><path id="Path-36" class="cls-6" d="M990.9,821.7l4.25,2.95a65.86,65.86,0,0,1-5.27,16c-4,8.42-7,10.53-7,10.53l-5.07-2.62,7-23.87Z" transform="translate(-506.75 -355.01)"/><path id="Path-37" class="cls-6" d="M863.57,669.92c.16.27-1,2.36-2,4-.65,1.08-1.22,2-1.24,2a27.35,27.35,0,0,1-11.13,1.55c-5.69-.61-5.43-3.42-6.75-4s-5.18,2-7,3.86c-.85.85-3.85,1.14-7.17,1.07-3.85-.09-8.14-.67-9.84-1.42-3.16-1.4,12.54-17.72,17.54-18.07s12.29,2.19,14.48,3.59,8.15,1.58,8.15,1.58S863.31,669.48,863.57,669.92Z" transform="translate(-506.75 -355.01)"/><path id="Path-38" class="cls-9" d="M1006.46,605.66l-18.27,35.67s-24.1,24.47-58.3,32.1-69.3,3.16-69.3,3.16l-.28-.76c-.16-.46-.3-.94-.43-1.42a46.21,46.21,0,0,1-1.31-11.77s4.21-3.16,18.69-8.42,71.57-15.79,71.57-15.79c13.16-22.63,34.88-53.55,34.88-53.55Z" transform="translate(-506.75 -355.01)"/><path id="Path-39" class="cls-15" d="M975,711.07s-95.59-5.36-105.76,17.09c-16.68,36.81,99.64,127,99.64,127s6.32.7,15.79-17.54S992,809.91,992,809.91s-81-58.24-69.82-64.55,77.89-11.93,77.89-11.93,6.66-12.63,7-14,3.5-18,3.5-18l-10.52-4.11Z" transform="translate(-506.75 -355.01)"/><path id="Path-40" class="cls-15" d="M1060.42,749.47a48.87,48.87,0,0,1-10.28,5.8c-1.42.6-2.87,1.16-4.35,1.66-19.86,7-44.7,6.9-64.4,7.64-2.51.09-4.93.19-7.25.33-11.58.67-20.53,2.05-24.26,6.16-10.78,11.84-99.46,115-99.46,115A38.39,38.39,0,0,1,825,872.71c-10.53-12.63-10.53-19.29-10.53-19.29s45.22-51.89,78.47-86.41l0,0c15-15.52,27.49-27.52,32.39-29.7,10.82-4.81,48.31-17.85,70.86-25.59h0c10.35-3.54,17.54-6,17.54-6l30-2,34.3-2.3c-7.07,4.72-28.55,18-46.72,18-.71,0-1.41,0-2.1,0a40.65,40.65,0,0,0,27.36-1.19c10.26-4.25,16.5-8.14,22-9.85C1078.81,718.42,1076.77,737.32,1060.42,749.47Z" transform="translate(-506.75 -355.01)"/><path id="Shape-2" class="cls-9" d="M1029.18,719.35c-12.42-.5-22.87-5.33-33-7.66-7-1.61-13.83-2-21.05,1a130.17,130.17,0,0,1-1-15.15,169.39,169.39,0,0,1,2.73-33.27c.73-3.88,1.39-8.53,2-13.64.12-.9.23-1.82.33-2.74.56-5,1.06-10.32,1.53-15.75h0c.4-4.74.75-9.55,1.08-14.25.52-7.47.95-14.67,1.29-20.93.24-4.65.44-8.79.6-12.1a43.29,43.29,0,0,1,8.11-23.59,43.92,43.92,0,0,1,10.5-10.44c13.52-9.34,42.29-6.54,53.52,24.16,1.64,4.49,3.37,9.35,5.11,14.52,3.88,11.45,7.85,24.43,11.21,38.24l.06.25a300.15,300.15,0,0,1,7.54,44.78,204.27,204.27,0,0,1,.73,24.49c0,.82-.06,1.64-.1,2.45,0,0-.86.62-2.4,1.66-5.29,3.53-18.65,11.85-32.65,15.82l-.1,0a52.38,52.38,0,0,1-14,2.15C1030.58,719.4,1029.87,719.39,1029.18,719.35Z" transform="translate(-506.75 -355.01)"/><path id="Path-41" class="cls-6" d="M988.31,545.71s-.27-8.33,0-8.71,6.1-3.65,6.1-3.65l5.43.68A99.36,99.36,0,0,1,988.31,545.71Z" transform="translate(-506.75 -355.01)"/><path id="Path-42" class="cls-6" d="M1013.28,546.58l-22.8,16.65c-.19-3.45-.69-7.57-1.16-11l11.48-13.84-.61-4.37,5.43.67,3.2.4Z" transform="translate(-506.75 -355.01)"/><path id="Path-43" class="cls-6" d="M1011.72,515.81c.06,2.09-3.94,8.42-9.32,15.13-.73.91-1.49,1.82-2.27,2.74-.09.12-.2.23-.29.35a99.36,99.36,0,0,1-11.53,11.68,38.84,38.84,0,0,1-3.49,2.63c-.43.29-.86.56-1.27.8-2.32,1.36-4.34,2-5.86,1.58-8.68-2.37-11.84-22.2-11.66-23.42s-4.3.61-5.09-1.67,6-9.74,5-13.06,0-8.87,0-8.87l6.45-7.23,20-4.74s13.81,6.57,14.73,7.63S1011.59,510.54,1011.72,515.81Z" transform="translate(-506.75 -355.01)"/><path id="Path-44" class="cls-6" d="M904.62,645.52l-3,5.31L900,653.5a53.62,53.62,0,0,1-12.9,2.72c-8,.81-11.45-5-15.26-7.65-3.34-2.31-11.2,3.63-15.31,3a2.66,2.66,0,0,1-1.53-.69c-3.3-3.16,14.07-16.18,18.54-16.18s10.4,3.54,14.74,5.87,12.46,0,12.46,0Z" transform="translate(-506.75 -355.01)"/><path id="Path-45" class="cls-18" d="M992.09,695.27l-10.7,10.41h0l-2.82,2.74-4.4-10.86-3.5-8.61,5.41-40,4-29.86,3-22.15,3.12-23.14,2.09-2.25,2,2.25s-.27,13.38-.47,30.33c-.06,6-.12,12.52-.15,19,0,7,0,14,.05,20.42.07,8.77.25,16.54.57,21.94C991.72,689,992.09,695.27,992.09,695.27Z" transform="translate(-506.75 -355.01)"/><path id="Path-46" class="cls-19" d="M990.48,563.22s-7.27,6.53-5.7,9.29,6.1,1.71,7.08.27S990.48,563.22,990.48,563.22Z" transform="translate(-506.75 -355.01)"/><ellipse id="Oval-35" class="cls-20" cx="973.54" cy="515.54" rx="1.08" ry="4.45" transform="translate(-583.3 -172.45) rotate(-10.31)"/><path id="Path-47" class="cls-21" d="M1000.8,538.44l-11.47,13.84c-.07-.5-.14-1-.2-1.43h0c-.43-3-.8-5.14-.8-5.14A99.36,99.36,0,0,0,999.84,534l.35,0Z" transform="translate(-506.75 -355.01)"/><path id="Path-48" class="cls-22" d="M1025.41,505.29s5.26,6.57,3.42,12c-1.78,5.22-9.47,18.06-21.4,22.23l-.06,0c-.38.14-.77.26-1.17.38-12.63,3.68-14.21-12.5-9.87-12.76s6.18-10.13,2.76-14.47-8.81,7.1-12,8.64,7.23-19.83-21.19-17.59-28.81-27.89-28.81-27.89c2.49-22,29.86-1.32,29.86-1.32s10.26-6.58,19.3-6.05a20.19,20.19,0,0,1,14,6.84s23.29,1.44,28.94,8.42S1025.41,505.29,1025.41,505.29Z" transform="translate(-506.75 -355.01)"/><path id="Path-49" class="cls-21" d="M901.57,650.83,900,653.5a53.14,53.14,0,0,1-12.9,2.72c-8,.81-11.45-5-15.26-7.65-3.34-2.31-11.2,3.63-15.32,3,.31-.19,11.55-7.28,15.18-5.38s10.44,8,15.44,7.9C891.63,654.05,899.81,651.41,901.57,650.83Z" transform="translate(-506.75 -355.01)"/><path id="Path-50" class="cls-21" d="M860.31,675.83a27.18,27.18,0,0,1-11.13,1.55c-5.69-.61-5.43-3.42-6.74-4s-5.18,2-7,3.86c-.86.86-3.86,1.14-7.17,1.07,3.3-2.39,13.2-9.29,15.24-7.83,2.45,1.76,4.74,6,9.29,5.45a44.11,44.11,0,0,0,7.1-1.57C860,674.89,860.15,675.37,860.31,675.83Z" transform="translate(-506.75 -355.01)"/><path id="Path-51" class="cls-10" d="M970.06,539.58s2.31,1.35,5.12-1.59,1.42-4,1.42-4Z" transform="translate(-506.75 -355.01)"/><path id="Path-52" class="cls-21" d="M991.26,521.29c.09-.4,5.79-9.17,6.71-5.81s1.78,9.08-1.64,9.8S990.61,524.4,991.26,521.29Z" transform="translate(-506.75 -355.01)"/><path id="Path-53" class="cls-21" d="M968.83,508.11a4,4,0,0,1,2.54-1.32,8,8,0,0,1,2.92.12,5.39,5.39,0,0,1,2.58,1.47,4.63,4.63,0,0,1,1.3,2.56,7,7,0,0,0-4.14-3,11.93,11.93,0,0,0-2.59-.33A5.71,5.71,0,0,0,968.83,508.11Z" transform="translate(-506.75 -355.01)"/><path id="Path-54" class="cls-8" d="M1031,699c-4.64,2.46-26,1.58-36.58-3.77l-13.05,10.42h0l10.7-10.41s-.37-6.32-1.79-29.74c-.33-5.4-.51-13.17-.58-21.94,32.47-14.94,47.89-36.22,52.27-53.31,2.44-9.52,2.7-16.41,1.92-21.4.52,2.39,6.64,32.8-12.89,54A128,128,0,0,1,1010.55,641c-.15,5.16-.11,28.58,13,25.77,14.73-3.16,26.66-9.21,27-4.79s-17.55,19.87-33,21.8S1035.67,696.59,1031,699Z" transform="translate(-506.75 -355.01)"/><path id="Path-55" class="cls-8" d="M977.48,648.52s-9.35,7.48-31.8,10.32-46.15-2.78-44.92-3.83c0,0,40.46,5.21,75.32-6Z" transform="translate(-506.75 -355.01)"/><path id="Path-56" class="cls-23" d="M920.36,813l28.78-36-2.61-2.12-29.95,34.46Z" transform="translate(-506.75 -355.01)"/><path id="Path-57" class="cls-23" d="M925.64,806.34l20.89,30.41L920.36,813Z" transform="translate(-506.75 -355.01)"/><path id="Path-58" class="cls-23" d="M996.2,711.69h0c-22.55,7.74-60,20.78-70.86,25.59-4.9,2.18-17.43,14.18-32.39,29.7.7-.87,23.15-28.7,27.42-32S996.2,711.69,996.2,711.69Z" transform="translate(-506.75 -355.01)"/><path id="Path-59" class="cls-23" d="M1078.58,708.31c-5.53,1.71-11.78,5.6-22,9.85a40.65,40.65,0,0,1-27.36,1.19c.69,0,1.4,0,2.1,0,18.17,0,39.65-13.28,46.72-18A45.8,45.8,0,0,1,1078.58,708.31Z" transform="translate(-506.75 -355.01)"/><path id="Path-60" class="cls-9" d="M986.81,611v0s0,0,0,0Z" transform="translate(-506.75 -355.01)"/><path id="Path-61" class="cls-19" d="M988.32,574.23l-.13,117.88-9.62,16.32,13.52-13.16L990.3,573.84Z" transform="translate(-506.75 -355.01)"/><path id="Path-62" class="cls-9" d="M1042,590.28c-4.38,17.09-19.8,38.37-52.27,53.32-1.82.84-3.71,1.66-5.65,2.46q-2.4,1-4.85,1.86a3.26,3.26,0,0,1-.44.15c-.43.15-.86.31-1.3.45l-1.4.47c-34.86,11.23-75.32,6-75.32,6-3.2-5.14,0-14.39,0-14.39s9.13-5.79,27.2-12.27c16.19-5.82,25.2-5.58,38.79-6.47h0c1.56-.11,3.18-.23,4.88-.37a19.43,19.43,0,0,0,8.48-2.39,11.32,11.32,0,0,0,1.71-1.22,20.51,20.51,0,0,0,5-6.91s0,0,0,0h0c1-2,1.94-4.24,3-6.8A176.28,176.28,0,0,1,999,585c21.93-38.88,36.92-28.68,36.92-28.68s6.28,1.94,8,12.4l0,.15C1044.69,573.87,1044.43,580.76,1042,590.28Z" transform="translate(-506.75 -355.01)"/><path id="Path-63" class="cls-8" d="M986.8,611c-.07.42-1.5,7.29-4.68,10.88s-14.88,0-15.36,0c1.56-.1,3.18-.22,4.88-.36a19.42,19.42,0,0,0,8.48-2.38,12.93,12.93,0,0,0,1.71-1.22A20.69,20.69,0,0,0,986.8,611Z" transform="translate(-506.75 -355.01)"/><path id="Path-64" class="cls-24" d="M1025.41,505.29s5.26,6.57,3.42,12c-1.78,5.22-9.47,18.06-21.4,22.23,8.77-3.61,16.67-15.72,18.92-22.48,2.2-6.58-4.36-12.16-4.36-12.16s7.87-12.09,4.92-18.08c-3.11-6.31-28.61-5.95-29.13-5.95s-.88-4-10.35-7.27-20,5-20,5-12.9-7.71-18.25-8.76c-10.24-2-12,6.05-12,6.05,2.49-22,29.86-1.32,29.86-1.32s10.26-6.58,19.3-6.05a20.19,20.19,0,0,1,14,6.84s23.29,1.44,28.94,8.42S1025.41,505.29,1025.41,505.29Z" transform="translate(-506.75 -355.01)"/><rect id="Rectangle-36" class="cls-12" x="117.36" y="534.77" width="269.38" height="8.84"/><rect id="Rectangle-37" class="cls-14" x="180.08" y="286.97" width="3.42" height="17.76"/><path id="Path-65" class="cls-18" d="M873.57,689.71v11.12a3.12,3.12,0,0,1-3.12,3.12H648.29a3.5,3.5,0,0,1-1-.14,3.17,3.17,0,0,1-2.16-3V689.71a3.13,3.13,0,0,1,3.13-3.12H870.45a3.1,3.1,0,0,1,2.6,1.39A3,3,0,0,1,873.57,689.71Z" transform="translate(-506.75 -355.01)"/><path id="Path-66" class="cls-19" d="M690,709H666.64a2.53,2.53,0,0,1-2.54-2.53h0V704h28.42v2.47A2.54,2.54,0,0,1,690,709Z" transform="translate(-506.75 -355.01)"/><path id="Path-67" class="cls-12" d="M681.84,709l-1.45,4.81L614.47,933.94h-9.29L672,713.76l1.46-4.81Z" transform="translate(-506.75 -355.01)"/><path id="Path-68" class="cls-19" d="M828.75,709H852.1a2.54,2.54,0,0,0,2.54-2.53V704H826.22v2.47a2.53,2.53,0,0,0,2.53,2.53Z" transform="translate(-506.75 -355.01)"/><path id="Path-69" class="cls-12" d="M913.56,933.94h-9.29L838.34,713.76,836.9,709h8.4l1.46,4.81Z" transform="translate(-506.75 -355.01)"/><path id="Path-70" class="cls-18" d="M730.16,665.65v8.19a1.43,1.43,0,0,1-1.43,1.43h-79.5a1.43,1.43,0,0,1-1.43-1.43v-8.19a1.43,1.43,0,0,1,1.43-1.43h79.5A1.43,1.43,0,0,1,730.16,665.65Z" transform="translate(-506.75 -355.01)"/><rect id="Rectangle-38" class="cls-19" x="145.61" y="320.26" width="11.31" height="11.31"/><path id="Path-71" class="cls-13" d="M694.46,645.52h-3.34a9.28,9.28,0,0,1-9.28-9.28V508.69a9.28,9.28,0,0,1,9.28-9.29h3.34Z" transform="translate(-506.75 -355.01)"/><rect id="Rectangle-39" class="cls-15" x="156.92" y="304.73" width="48.96" height="4.47"/><path id="Path-72" class="cls-14" d="M681.84,629.69h-1.46a9.43,9.43,0,0,1-9.43-9.43h0V522.92a9.43,9.43,0,0,1,9.43-9.42h1.46Z" transform="translate(-506.75 -355.01)"/><rect id="Rectangle-40" class="cls-15" x="284.84" y="325.96" width="75.96" height="5.61"/><rect id="Rectangle-41" class="cls-15" x="772.9" y="613.94" width="5.61" height="75.96" transform="translate(-724.61 98.04) rotate(-28.73)"/><path id="Path-73" class="cls-18" d="M843.05,681H796.83a1.84,1.84,0,0,1,1.84-1.84h42.54A1.85,1.85,0,0,1,843.05,681Z" transform="translate(-506.75 -355.01)"/><path id="Path-74" class="cls-25" d="M873.05,688,647.32,703.81a3.17,3.17,0,0,1-2.16-3V689.71a3.13,3.13,0,0,1,3.13-3.12H870.45A3.1,3.1,0,0,1,873.05,688Z" transform="translate(-506.75 -355.01)"/><path id="Path-75" class="cls-19" d="M730.16,670.43v3.41a1.43,1.43,0,0,1-1.43,1.43h-79.5a1.43,1.43,0,0,1-1.43-1.43v-3.41a1.43,1.43,0,0,1,1.43-1.43h79.5A1.43,1.43,0,0,1,730.16,670.43Z" transform="translate(-506.75 -355.01)"/><path id="Path-76" class="cls-26" d="M626.37,894.2h266l1.14,4.42H625.05Z" transform="translate(-506.75 -355.01)"/><path id="Path-77" class="cls-26" d="M673.44,709h8.4l-1.45,4.81H672Z" transform="translate(-506.75 -355.01)"/><path id="Path-78" class="cls-26" d="M846.82,713.76h-8.48L836.9,709h8.4Z" transform="translate(-506.75 -355.01)"/><rect id="Rectangle-42" class="cls-17" x="484.45" y="501.3" width="42.29" height="10.53"/><path id="Path-79" class="cls-14" d="M1099,569v74.77a8,8,0,0,1-.5,2.86,8.17,8.17,0,0,1-5.8,5.1,7.85,7.85,0,0,1-1.87.23h-14.17a8.1,8.1,0,0,1-3.8-.94h0a8.35,8.35,0,0,1-2.48-2,2.61,2.61,0,0,1-.34-.46,8.05,8.05,0,0,1-1.54-4.76V569a8.18,8.18,0,0,1,8.18-8.18h14.17A8.18,8.18,0,0,1,1099,569Z" transform="translate(-506.75 -355.01)"/><path id="Path-80" class="cls-13" d="M1094.43,571.2v71.47a4.46,4.46,0,0,1-4.45,4.44h-12.49a4.44,4.44,0,0,1-4.44-4.44V571.2a4.43,4.43,0,0,1,4.43-4.43H1090a4.45,4.45,0,0,1,4.45,4.43Z" transform="translate(-506.75 -355.01)"/><path id="Path-81" class="cls-27" d="M1094.43,571.2v71.47a4.43,4.43,0,0,1-3.24,4.27c-5-22.81-12.86-58.07-17.73-77.6a4.44,4.44,0,0,1,4-2.57H1090a4.45,4.45,0,0,1,4.45,4.43Z" transform="translate(-506.75 -355.01)"/></g></g></svg>